<svg width="28" height="28" viewBox="0 0 28 28" fill="none" xmlns="http://www.w3.org/2000/svg">
<path fill-rule="evenodd" clip-rule="evenodd" d="M1.8125 5.25003C1.29473 5.25003 0.875 5.66976 0.875 6.18753V13.2188V21.1875C0.875 21.7053 1.29473 22.125 1.8125 22.125H9.54688C10.8522 22.125 12.1041 21.6065 13.0272 20.6834C13.9502 19.7604 14.4688 18.5085 14.4688 17.2032C14.4688 15.8978 13.9502 14.6459 13.0272 13.7229C12.5739 13.2696 12.0414 12.9139 11.4622 12.6692C12.189 11.8554 12.5938 10.8001 12.5938 9.70316C12.5938 8.52211 12.1246 7.38944 11.2895 6.55432C10.4543 5.7192 9.32167 5.25003 8.14062 5.25003H1.8125ZM2.75 20.25V14.1563H8.14062H9.54688C10.355 14.1563 11.1299 14.4773 11.7013 15.0487C12.2727 15.6201 12.5938 16.3951 12.5938 17.2032C12.5938 18.0112 12.2727 18.7862 11.7013 19.3576C11.1299 19.929 10.355 20.25 9.54688 20.25H2.75ZM2.75 12.2813H8.14062C8.82439 12.2813 9.48014 12.0097 9.96363 11.5262C10.4471 11.0427 10.7188 10.3869 10.7188 9.70316C10.7188 9.01939 10.4471 8.36364 9.96363 7.88015C9.48014 7.39665 8.82439 7.12503 8.14062 7.12503H2.75V12.2813ZM16.8125 8.06253C16.8125 7.54476 17.2322 7.12503 17.75 7.12503H25.25C25.7678 7.12503 26.1875 7.54476 26.1875 8.06253C26.1875 8.5803 25.7678 9.00003 25.25 9.00003H17.75C17.2322 9.00003 16.8125 8.5803 16.8125 8.06253ZM18.8609 11.5606C20.0051 10.9476 21.3265 10.7501 22.6 11.0018C23.8734 11.2534 25.0203 11.9387 25.8454 12.9409C26.6704 13.9431 27.1226 15.2002 27.125 16.4983C27.1255 16.7473 27.0269 16.9862 26.851 17.1623C26.6752 17.3385 26.4364 17.4375 26.1875 17.4375H17.8907C17.9042 17.4903 17.9189 17.5428 17.9348 17.5951C18.1861 18.4223 18.7163 19.1368 19.4351 19.617C20.154 20.0973 21.0171 20.3135 21.8774 20.2289C22.7378 20.1444 23.5422 19.7642 24.1538 19.1532C24.5201 18.7873 25.1137 18.7876 25.4796 19.1539C25.8456 19.5201 25.8453 20.1137 25.479 20.4797C24.5607 21.3971 23.3527 21.9679 22.0608 22.0949C20.769 22.2219 19.473 21.8972 18.3936 21.1761C17.3142 20.4551 16.5181 19.3821 16.1408 18.1401C16.0004 17.678 15.9212 17.2031 15.9027 16.7272C15.8846 16.6544 15.875 16.5784 15.875 16.5C15.875 16.4205 15.8849 16.3433 15.9035 16.2696C15.9312 15.6194 16.072 14.9742 16.3243 14.3639C16.8202 13.1643 17.7167 12.1737 18.8609 11.5606ZM17.8951 15.5625H25.1283C24.9922 15.0422 24.7444 14.5536 24.3978 14.1326C23.8483 13.4652 23.0846 13.0088 22.2365 12.8412C21.3884 12.6736 20.5084 12.8051 19.7463 13.2134C18.9843 13.6217 18.3873 14.2814 18.057 15.0803C17.9919 15.2379 17.9379 15.3991 17.8951 15.5625Z" fill="#5BD424"/>
</svg>