<svg width="24" height="24" viewBox="0 0 24 24" fill="none" xmlns="http://www.w3.org/2000/svg">
<path d="M12 8.25V6" stroke="white" stroke-width="1.5" stroke-linecap="round" stroke-linejoin="round"/>
<path d="M12 6C16.3312 4.5 12 0.75 12 0.75C12 0.75 7.5 4.5 12 6Z" stroke="white" stroke-width="1.5" stroke-linecap="round" stroke-linejoin="round"/>
<path d="M15.1875 11.8125C15.1875 12.6579 14.8517 13.4686 14.2539 14.0664C13.6561 14.6642 12.8454 15 12 15C11.1546 15 10.3439 14.6642 9.7461 14.0664C9.14832 13.4686 8.8125 12.6579 8.8125 11.8125" stroke="white" stroke-width="1.5" stroke-linecap="round" stroke-linejoin="round"/>
<path d="M8.81249 11.8125C8.81267 12.6466 8.48586 13.4476 7.90221 14.0435C7.31856 14.6395 6.52457 14.9828 5.69061 15C3.89999 15.0375 2.43749 13.5375 2.43749 11.7469V10.5C2.43625 10.2042 2.4936 9.91106 2.60623 9.63752C2.71887 9.36397 2.88455 9.11544 3.09373 8.90626C3.30291 8.69708 3.55144 8.5314 3.82499 8.41876C4.09853 8.30613 4.39167 8.24878 4.68749 8.25002H19.3125C19.6083 8.24878 19.9014 8.30613 20.175 8.41876C20.4485 8.5314 20.6971 8.69708 20.9062 8.90626C21.1154 9.11544 21.2811 9.36397 21.3937 9.63752C21.5064 9.91106 21.5637 10.2042 21.5625 10.5V11.7469C21.5625 13.5375 20.1 15.0375 18.3094 15C17.4754 14.9828 16.6814 14.6395 16.0978 14.0435C15.5141 13.4476 15.1873 12.6466 15.1875 11.8125" stroke="white" stroke-width="1.5" stroke-linecap="round" stroke-linejoin="round"/>
<path d="M20.25 14.3719V19.5C20.25 19.6989 20.171 19.8897 20.0303 20.0303C19.8897 20.171 19.6989 20.25 19.5 20.25H4.5C4.30109 20.25 4.11032 20.171 3.96967 20.0303C3.82902 19.8897 3.75 19.6989 3.75 19.5V14.3719" stroke="white" stroke-width="1.5" stroke-linecap="round" stroke-linejoin="round"/>
</svg>