<svg width="24" height="24" viewBox="0 0 24 24" fill="none" xmlns="http://www.w3.org/2000/svg">
<path d="M22.0313 6.28124L22.0875 6.24374C21.975 6.03749 21.8063 5.84999 21.6375 5.75624L12.5813 0.543726C12.4313 0.449976 12.225 0.412476 12 0.412476C11.775 0.412476 11.5688 0.468726 11.4187 0.543726L2.41873 5.77499C2.09997 5.96249 1.87497 6.43124 1.87497 6.78749V17.2313C1.87497 17.4375 1.91247 17.6625 2.04372 17.8688L2.00622 17.8875C2.09997 18.0375 2.23123 18.1688 2.36248 18.2438L11.4 23.475C11.55 23.5688 11.7563 23.6063 11.9813 23.6063C12.2063 23.6063 12.4125 23.55 12.5625 23.475L21.5625 18.2438C21.8813 18.0563 22.1063 17.5875 22.1063 17.2313V6.76874C22.125 6.61874 22.1063 6.44999 22.0313 6.28124ZM12 19.4063C7.91249 19.4063 4.59373 16.0875 4.59373 12C4.59373 7.9125 7.91249 4.59374 12 4.59374C14.7563 4.59374 17.1563 6.11249 18.4313 8.34375L15.9938 9.75C15.2063 8.34375 13.7063 7.40624 12 7.40624C9.46874 7.40624 7.40624 9.46875 7.40624 12C7.40624 14.5313 9.46874 16.5938 12 16.5938C13.7063 16.5938 15.2063 15.6563 15.9938 14.2688L18.4125 15.6938C17.1375 17.9063 14.7375 19.4063 12 19.4063ZM21.5625 11.625H20.9625L20.7938 12.375H21.5625V13.3125H20.625L20.4 14.4375H19.4813L19.7063 13.3125H18.9938L18.7688 14.4375H17.8688L18.0938 13.3125H17.625V12.375H18.2813L18.45 11.625H17.625V10.6875H18.6188L18.8438 9.5625H19.7625L19.5375 10.6875H20.25L20.475 9.5625H21.375L21.15 10.6875H21.5625V11.625ZM19.1813 12.375H19.8938L20.0625 11.625H19.35L19.1813 12.375Z" fill="white"/>
</svg>
