<svg width="24" height="24" viewBox="0 0 24 24" fill="none" xmlns="http://www.w3.org/2000/svg">
<path d="M5.23285 5.23284C5.23285 5.23284 9.56399 3.06856 11.7291 1.98513C12.1232 1.79087 12.5595 1.69806 12.9986 1.71513C13.6551 1.75541 14.436 2.39056 14.436 2.39056L22.2857 10.2411V18.6317H18.6317V22.2857H10.1049L2.39056 14.5714C1.97399 14.1428 1.71428 13.5386 1.71428 12.9471C1.71428 12.6737 1.86856 12.246 1.98514 12L5.23285 5.23284ZM5.81485 5.81484V15.918C5.81657 16.3834 5.83285 16.7957 6.24171 17.2106L10.4606 21.4286H17.7746V17.7746L5.81485 5.81484ZM16.1477 5.2337C15.3771 4.4657 14.5971 3.70798 13.7991 2.96827C13.5403 2.73941 13.3131 2.56713 12.882 2.57227C12.5649 2.58427 12.1363 2.73941 12.1363 2.73941L7.14942 5.23284L16.1477 5.2337Z" fill="white"/>
</svg>
