<svg width="24" height="24" viewBox="0 0 24 24" fill="none" xmlns="http://www.w3.org/2000/svg">
<path d="M3.66919 5.06249L5.1855 21.9223L11.9897 23.7377L18.8128 21.9566L20.3308 5.06249H3.66919ZM17.1769 8.9008L17.0818 9.99468L17.04 10.5H9.05831L9.249 12.75H16.8503L16.7994 13.1683L16.3091 18.5887L16.2731 18.9056L12 20.0557V20.0548L11.9949 20.0571L7.72425 18.9478L7.43438 15.75H9.52838L9.67669 17.3362L11.9989 17.9248L12 17.8809V17.8832L14.3273 17.3865L14.5703 14.8125H7.34119L6.82856 9.03074L6.7785 8.43749H17.2268L17.1769 8.9008ZM5.24175 0.305054H6.29588V1.3468H7.26038V0.305054H8.31469V3.45918H7.26038V2.40299H6.29606V3.45918H5.24175V0.305054ZM9.70088 1.35112H8.77275V0.305054H11.6837V1.35112H10.7552V3.45918H9.70088V1.35112ZM12.1457 0.305054H13.2448L13.9211 1.41337L14.5967 0.305054H15.6964V3.45918H14.6462V1.8958L13.9211 3.01724H13.9028L13.1771 1.8958V3.45918H12.1455L12.1457 0.305054ZM16.2212 0.305054H17.2757V2.41668H18.7583V3.45937H16.2212V0.305054Z" fill="white"/>
</svg>