<svg width="24" height="24" viewBox="0 0 24 24" fill="none" xmlns="http://www.w3.org/2000/svg">
<path d="M7.22475 5.976H10.038V13.8615C10.038 17.415 8.33475 18.6555 5.61375 18.6555C4.94775 18.6555 4.09575 18.5445 3.54075 18.3592L3.85575 16.0822C4.24425 16.212 4.7445 16.3042 5.2995 16.3042C6.4845 16.3042 7.22475 15.7672 7.22475 13.8427V5.976ZM12.4807 15.5647C13.221 15.9532 14.406 16.3425 15.609 16.3425C16.905 16.3425 17.5897 15.8055 17.5897 14.973C17.5897 14.214 16.9972 13.7512 15.498 13.233C13.425 12.4927 12.0555 11.3452 12.0555 9.51225C12.0555 7.38375 13.851 5.7735 16.7752 5.7735C18.2002 5.7735 19.2187 6.051 19.959 6.40275L19.3297 8.661C18.8482 8.42025 17.9415 8.0685 16.7385 8.0685C15.5167 8.0685 14.9242 8.64225 14.9242 9.2715C14.9242 10.0672 15.609 10.419 17.238 11.0482C19.4407 11.8627 20.4585 13.0102 20.4585 14.787C20.4585 16.8787 18.867 18.6555 15.4425 18.6555C14.0175 18.6555 12.6105 18.267 11.907 17.8777L12.4807 15.5647Z" fill="white"/>
</svg>