<svg width="28" height="28" viewBox="0 0 28 28" fill="none" xmlns="http://www.w3.org/2000/svg">
<path fill-rule="evenodd" clip-rule="evenodd" d="M18.6667 10.2083C17.0422 10.2083 15.4843 10.8537 14.3356 12.0023C13.187 13.151 12.5417 14.7089 12.5417 16.3333V23.625H15.4583V16.3333C15.4583 15.4824 15.7964 14.6664 16.398 14.0647C16.9997 13.463 17.8158 13.125 18.6667 13.125C19.5176 13.125 20.3336 13.463 20.9353 14.0647C21.537 14.6664 21.875 15.4824 21.875 16.3333V23.625H24.7917V16.3333C24.7917 14.7089 24.1464 13.151 22.9977 12.0023C21.849 10.8537 20.2911 10.2083 18.6667 10.2083ZM13.0982 10.7649C14.5751 9.28803 16.5781 8.45834 18.6667 8.45834C20.7553 8.45834 22.7583 9.28803 24.2351 10.7649C25.712 12.2417 26.5417 14.2448 26.5417 16.3333V24.5C26.5417 24.9833 26.1499 25.375 25.6667 25.375H21C20.5168 25.375 20.125 24.9833 20.125 24.5V16.3333C20.125 15.9466 19.9714 15.5756 19.6979 15.3021C19.4244 15.0287 19.0534 14.875 18.6667 14.875C18.2799 14.875 17.909 15.0287 17.6355 15.3021C17.362 15.5756 17.2083 15.9466 17.2083 16.3333V24.5C17.2083 24.9833 16.8166 25.375 16.3333 25.375H11.6667C11.1834 25.375 10.7917 24.9833 10.7917 24.5V16.3333C10.7917 14.2448 11.6214 12.2417 13.0982 10.7649Z" fill="#5BD424"/>
<path fill-rule="evenodd" clip-rule="evenodd" d="M1.45833 10.5C1.45833 10.0168 1.85008 9.625 2.33333 9.625H7C7.48324 9.625 7.875 10.0168 7.875 10.5V24.5C7.875 24.9833 7.48324 25.375 7 25.375H2.33333C1.85008 25.375 1.45833 24.9833 1.45833 24.5V10.5ZM3.20833 11.375V23.625H6.125V11.375H3.20833Z" fill="#5BD424"/>
<path fill-rule="evenodd" clip-rule="evenodd" d="M4.66666 3.20834C3.86125 3.20834 3.20833 3.86126 3.20833 4.66668C3.20833 5.47209 3.86125 6.12501 4.66666 6.12501C5.47208 6.12501 6.125 5.47209 6.125 4.66668C6.125 3.86126 5.47208 3.20834 4.66666 3.20834ZM1.45833 4.66668C1.45833 2.89476 2.89475 1.45834 4.66666 1.45834C6.43858 1.45834 7.875 2.89476 7.875 4.66668C7.875 6.43859 6.43858 7.87501 4.66666 7.87501C2.89475 7.87501 1.45833 6.43859 1.45833 4.66668Z" fill="#5BD424"/>
</svg>