<svg width="24" height="24" viewBox="0 0 24 24" fill="none" xmlns="http://www.w3.org/2000/svg">
<path d="M11.8832 2.48624C11.108 2.48982 10.3678 2.55595 9.71639 2.67121C7.79754 3.01021 7.44916 3.71976 7.44916 5.02829V6.75646H11.9836V7.33252H7.44916H5.74741C4.42957 7.33252 3.27563 8.12462 2.91469 9.63146C2.49835 11.3587 2.47989 12.4365 2.91469 14.2399C3.23702 15.5823 4.00677 16.5389 5.32462 16.5389H6.88367V14.4672C6.88367 12.9705 8.17863 11.6503 9.71639 11.6503H14.2456C15.5063 11.6503 16.5128 10.6122 16.5128 9.34607V5.02829C16.5128 3.79942 15.4761 2.8763 14.2456 2.67121C13.4666 2.54155 12.6584 2.48264 11.8832 2.48624ZM9.43101 3.87618C9.89938 3.87618 10.2819 4.26492 10.2819 4.7429C10.2819 5.2192 9.89938 5.60435 9.43101 5.60435C8.96095 5.60435 8.58013 5.2192 8.58013 4.7429C8.58013 4.26492 8.96095 3.87618 9.43101 3.87618ZM17.0783 7.33252V9.34607C17.0783 10.9072 15.7548 12.2211 14.2456 12.2211H9.71639C8.47577 12.2211 7.44916 13.2829 7.44916 14.5253V18.8431C7.44916 20.072 8.51774 20.7948 9.71639 21.1473C11.1517 21.5694 12.5282 21.6456 14.2456 21.1473C15.3871 20.8168 16.5128 20.1516 16.5128 18.8431V17.1149H11.9836V16.5389H16.5128H18.78C20.0979 16.5389 20.589 15.6196 21.0473 14.2399C21.5207 12.8195 21.5005 11.4536 21.0473 9.63146C20.7216 8.31954 20.0996 7.33252 18.78 7.33252H17.0783ZM14.531 18.267C15.001 18.267 15.3818 18.6522 15.3818 19.1285C15.3818 19.6065 15.001 19.9952 14.531 19.9952C14.0626 19.9952 13.6801 19.6065 13.6801 19.1285C13.6801 18.6522 14.0626 18.267 14.531 18.267Z" fill="white"/>
</svg>