<svg width="24" height="24" viewBox="0 0 24 24" fill="none" xmlns="http://www.w3.org/2000/svg">
<path d="M7.092 20.4375C11.7533 21.0735 16.3313 21.699 21 22.3365C19.4093 19.6882 17.8597 17.1075 16.2975 14.5058C13.2367 16.4783 10.2038 18.432 7.092 20.4375ZM22.3162 5.77875C21.9052 6.396 21.4935 7.0125 21.0833 7.62975C19.674 9.75 18.2647 11.8703 16.857 13.9913C16.7782 14.1098 16.677 14.2035 16.7872 14.385C18.1477 16.6313 19.497 18.8843 20.85 21.135C21.0637 21.4905 21.279 21.8445 21.5557 22.1857C21.8287 16.7227 22.1025 11.2598 22.3762 5.79675C22.356 5.79075 22.3357 5.784 22.3162 5.77875ZM3.74625 12.7822C3.81 12.843 3.96825 12.8775 4.0425 12.8415C5.3475 12.2003 6.66075 11.5733 7.9365 10.8788C8.35275 10.6523 8.673 10.2473 9.0315 9.918C10.2188 8.829 11.4045 7.73775 12.5895 6.6465C12.6622 6.57975 12.7478 6.5145 12.7913 6.4305C13.2172 5.59875 13.635 4.7625 14.0685 3.90225C13.5517 3.708 13.0628 3.51825 12.567 3.34575C12.5003 3.3225 12.3937 3.369 12.321 3.4095C11.1735 4.05 10.005 4.65675 8.89425 5.35575C8.3385 5.70525 7.8855 6.22125 7.3935 6.66975C6.6 7.3935 5.808 8.1195 5.0265 8.856C4.81875 9.05175 4.62975 9.2745 4.4685 9.51C3.93375 10.2885 3.4155 11.0782 2.87325 11.8898C3.17625 12.204 3.45225 12.504 3.747 12.783L3.74625 12.7822ZM8.51475 11.7188C7.866 14.4608 7.22025 17.1878 6.5535 20.004C9.6795 17.9895 12.7343 16.0215 15.768 14.067C13.3538 13.2855 10.947 12.5063 8.51475 11.7195V11.7188ZM21.519 5.805C18.8775 6.246 16.299 6.67725 13.6875 7.113C14.577 9.27675 15.4485 11.397 16.3455 13.578C18.0802 10.9718 19.7805 8.418 21.5198 5.805H21.519ZM8.6235 11.1578C11.0025 11.9303 13.3335 12.687 15.7327 13.4655C14.8417 11.295 13.9815 9.20025 13.1033 7.062C11.607 8.43 10.134 9.777 8.6235 11.1578ZM3.8445 14.3813C3.00075 16.398 2.18625 18.3458 1.35675 20.3288C2.95125 20.2815 4.497 20.2358 6.09525 20.1885C5.3445 18.252 4.60875 16.3538 3.8445 14.3813ZM6.15075 18.81C6.17025 18.8062 6.18975 18.801 6.21 18.7973C6.7785 16.4318 7.356 14.082 7.93725 11.6235C6.64125 12.297 5.40525 12.939 4.1355 13.5997C4.7835 15.2842 5.4735 17.061 6.15075 18.81ZM20.5627 5.42175C19.806 5.2215 19.0492 5.0205 18.2925 4.821C17.2042 4.53525 16.1153 4.2525 15.0278 3.96375C14.892 3.92775 14.7937 3.90375 14.7135 4.068C14.3295 4.8555 13.9327 5.637 13.5427 6.4215C13.5307 6.4455 13.533 6.477 13.524 6.53775C15.8805 6.18075 18.2213 5.826 20.5613 5.47125C20.562 5.45475 20.562 5.43825 20.5627 5.42175ZM16.173 3.63075C18.2048 4.19325 20.2373 4.755 22.3403 5.337C21.9862 4.329 21.6585 3.3945 21.321 2.433C19.5938 2.81625 17.8883 3.19425 16.182 3.57225C16.179 3.59175 16.176 3.61125 16.173 3.63075ZM6.67425 20.892C5.91 20.8042 5.12625 20.8853 4.3515 20.898C3.71475 20.9092 3.07875 20.9333 2.44275 20.9528C2.37675 20.955 2.3115 20.9677 2.24625 21.0382C7.5075 21.525 12.7687 22.011 18.0292 22.4977C18.033 22.4745 18.036 22.4505 18.0397 22.4272C16.353 22.197 14.667 21.9667 12.9802 21.7365C10.8787 21.4492 8.781 21.135 6.67425 20.892ZM1.46025 18.5137C2.13825 16.941 2.81325 15.366 3.49425 13.7948C3.5625 13.6372 3.55725 13.53 3.42375 13.4033C3.13875 13.1325 2.87475 12.84 2.5635 12.5167C2.14275 14.5942 1.7325 16.6193 1.32225 18.645C1.33725 18.6518 1.353 18.6593 1.368 18.6667C1.3995 18.6165 1.43775 18.5685 1.461 18.5145L1.46025 18.5137ZM14.8223 3.21525C15.9653 2.9205 17.1255 2.6895 18.2782 2.43225C18.3525 2.41575 18.426 2.391 18.4995 2.37C18.4958 2.35125 18.492 2.3325 18.4882 2.31375C16.8645 2.532 15.24 2.751 13.5338 2.9805C13.9987 3.18375 14.3573 3.3345 14.8223 3.21525Z" fill="white"/>
</svg>