<svg width="24" height="24" viewBox="0 0 24 24" fill="none" xmlns="http://www.w3.org/2000/svg">
<path d="M4.76456 20.7322V17.8269L6.98493 17.7381C9.29399 17.6494 11.0068 17.4591 13.5187 17.0276C16.3734 16.5328 19.1899 15.6448 19.4818 15.1372C19.5579 15.0103 19.6086 15.9874 19.6086 17.8777V20.8211L19.2786 21.0748C18.9234 21.354 17.5532 21.8235 15.9928 22.2167C13.5568 22.8257 7.60649 23.625 5.57662 23.625H4.76474L4.76456 20.7322ZM4.76456 13.3738V10.4681L6.98493 10.392C9.44624 10.2906 11.3619 10.0749 13.8994 9.60543C16.7413 9.07255 19.3294 8.20986 19.5199 7.74036C19.5579 7.65168 19.596 8.88224 19.596 10.4809C19.6086 13.0183 19.5832 13.4242 19.3929 13.6271C18.9489 14.1221 15.5233 15.0101 11.9962 15.5557C9.85218 15.8857 6.29981 16.2664 5.30999 16.2664H4.76456V13.3738ZM4.76456 6.06599V3.22405L5.15793 3.14793C5.37356 3.10986 5.90643 3.0718 6.33787 3.0718C8.46918 3.0718 13.5315 2.37393 16.0181 1.73961C17.7562 1.28286 18.9615 0.826114 19.3802 0.445489C19.5958 0.255177 19.6086 0.369364 19.6086 3.16049C19.6086 5.88824 19.596 6.09111 19.3676 6.29436C19.0251 6.61143 16.6779 7.33461 14.8507 7.70249C11.8948 8.28618 6.98493 8.90793 5.31018 8.90793H4.76456V6.06599Z" fill="white"/>
</svg>
