<svg width="24" height="24" viewBox="0 0 24 24" fill="none" xmlns="http://www.w3.org/2000/svg">
<path d="M17.5939 20.6171C14.9987 22.1351 11.4468 22.2913 7.85091 20.7287C4.9478 19.4787 2.53953 17.2911 1 14.7909C1.73678 15.4048 2.60551 15.907 3.52923 16.3535C7.2351 18.1058 10.93 17.9831 13.5362 16.3535C9.83031 13.4627 6.67427 9.70133 4.33198 6.63196C3.83714 6.1297 3.47425 5.50466 3.10036 4.9466C12.2056 11.6992 11.8097 13.4181 5.75055 3.8193C11.1279 9.33301 16.1204 12.4582 16.1204 12.4582C16.2963 12.5586 16.3953 12.6368 16.5163 12.7037C16.6262 12.4247 16.7252 12.1345 16.8022 11.8332C17.6709 8.65217 16.6812 5.0024 14.5149 2C19.5184 5.06937 22.4874 10.8286 21.2448 15.6615C21.2118 15.7843 21.1789 15.907 21.1898 16.0968C23.6531 19.2555 22.9933 22.548 22.6744 21.923C21.3438 19.2555 18.8476 20.0814 17.5939 20.6171Z" fill="white"/>
</svg>