<svg width="28" height="28" viewBox="0 0 28 28" fill="none" xmlns="http://www.w3.org/2000/svg">
<path fill-rule="evenodd" clip-rule="evenodd" d="M23.5164 3.16538C23.8119 3.05083 24.133 3.01866 24.4453 3.07233C24.7577 3.126 25.0496 3.26349 25.2899 3.47011C25.5302 3.67674 25.7099 3.94474 25.8098 4.24552C25.9097 4.54629 25.926 4.86855 25.8571 5.17788L25.856 5.18278L25.8559 5.18278L21.7435 23.1422L21.7433 23.1426C21.6754 23.4385 21.5317 23.7116 21.3264 23.9351C21.121 24.1586 20.861 24.3248 20.572 24.4175C20.2829 24.5102 19.9748 24.5261 19.6777 24.4636C19.3813 24.4013 19.1061 24.2631 18.8791 24.0626C18.8786 24.0622 18.8782 24.0618 18.8777 24.0614L9.22287 15.5664L3.62299 14.4422L3.61939 14.4415C1.93739 14.0965 1.67891 11.7405 3.32282 11.0962L3.64208 11.9109L3.32222 11.0965L3.32282 11.0962L23.5128 3.16678L23.5164 3.16538ZM3.96685 12.7234C3.967 12.7245 3.96718 12.7255 3.96738 12.7264C3.96821 12.7266 3.96912 12.7268 3.97009 12.727C3.9704 12.7271 3.97072 12.7271 3.97104 12.7272L9.79712 13.8968C9.94767 13.927 10.0876 13.9963 10.2029 14.0977L20.0357 22.7493L20.0377 22.7511L24.149 4.79706L3.96685 12.7234ZM3.95851 12.7236C3.95851 12.7236 3.95852 12.7236 3.95855 12.7237L3.95851 12.7236Z" fill="#5BD424"/>
<path fill-rule="evenodd" clip-rule="evenodd" d="M25.2203 3.49082C25.5032 3.88258 25.415 4.42953 25.0233 4.71248L10.1373 15.464C9.74557 15.747 9.19862 15.6588 8.91567 15.267C8.63272 14.8753 8.72093 14.3283 9.11268 14.0454L23.9986 3.29382C24.3904 3.01087 24.9373 3.09907 25.2203 3.49082Z" fill="#5BD424"/>
<path fill-rule="evenodd" clip-rule="evenodd" d="M9.625 13.8797C10.1082 13.8797 10.5 14.2714 10.5 14.7547L10.5 21.8735L10.5047 21.8687L13.9172 18.4563C14.2589 18.1146 14.8129 18.1146 15.1547 18.4563C15.4964 18.798 15.4964 19.352 15.1547 19.6937L11.7441 23.1042C11.501 23.35 11.1906 23.5182 10.852 23.5878C10.5121 23.6576 10.1591 23.6247 9.83785 23.4934C9.51664 23.3621 9.24171 23.1383 9.04801 22.8504C8.85431 22.5625 8.75058 22.2235 8.75 21.8764L8.75 14.7547C8.75 14.2714 9.14175 13.8797 9.625 13.8797Z" fill="#5BD424"/>
</svg>