<svg width="145" height="30" viewBox="0 0 145 30" fill="none" xmlns="http://www.w3.org/2000/svg">
<path d="M12.81 24.702C14.042 24.702 14.658 25.43 14.658 26.886C14.658 27.754 14.49 28.37 14.154 28.734C13.818 29.098 13.328 29.28 12.684 29.28H10.458C8.106 29.28 6.37 28.818 5.25 27.894C4.158 26.942 3.612 25.332 3.612 23.064V12.732H1.764C1.12 12.732 0.658 12.578 0.378 12.27C0.126 11.962 0 11.458 0 10.758C0 10.086 0.126 9.59599 0.378 9.28799C0.658 8.97999 1.12 8.82599 1.764 8.82599H3.612V4.54199C3.612 3.28199 4.522 2.65199 6.342 2.65199C8.162 2.65199 9.072 3.28199 9.072 4.54199V8.82599H12.81C13.454 8.82599 13.902 8.97999 14.154 9.28799C14.434 9.59599 14.574 10.086 14.574 10.758C14.574 11.458 14.434 11.976 14.154 12.312C13.902 12.62 13.454 12.76 12.81 12.732H9.072V21.468C9.072 22.14 9.1 22.686 9.156 23.106C9.24 23.526 9.38 23.862 9.576 24.114C9.772 24.338 10.038 24.492 10.374 24.576C10.71 24.66 11.144 24.702 11.676 24.702H12.81Z" fill="white"/>
<path d="M22.0822 20.376C22.2222 21.972 22.6842 23.246 23.4682 24.198C24.2802 25.122 25.5122 25.584 27.1642 25.584C28.0602 25.584 28.8442 25.416 29.5162 25.08C30.1882 24.744 30.7622 24.198 31.2382 23.442C31.6862 22.77 32.7082 22.434 34.3042 22.434C35.2002 22.434 35.8022 22.588 36.1102 22.896C36.4462 23.204 36.6142 23.512 36.6142 23.82C36.6142 24.044 36.5582 24.282 36.4462 24.534C35.8022 26.326 34.6402 27.642 32.9602 28.482C31.2802 29.294 29.3202 29.7 27.0802 29.7C25.5402 29.7 24.1262 29.49 22.8382 29.07C21.5502 28.65 20.4302 28.006 19.4782 27.138C18.5262 26.27 17.7842 25.178 17.2522 23.862C16.7202 22.518 16.4542 20.922 16.4542 19.074C16.4542 17.226 16.7202 15.644 17.2522 14.328C17.7842 12.984 18.5262 11.878 19.4782 11.01C20.4302 10.114 21.5502 9.45599 22.8382 9.03599C24.1262 8.61599 25.5402 8.40599 27.0802 8.40599C28.4802 8.40599 29.7822 8.60199 30.9862 8.99399C32.1902 9.35799 33.2542 9.90399 34.1782 10.632C35.1022 11.36 35.8302 12.27 36.3622 13.362C36.9222 14.426 37.2302 15.658 37.2862 17.058V18.192C37.2862 18.836 37.0622 19.368 36.6142 19.788C36.1662 20.18 35.6062 20.376 34.9342 20.376H22.0822ZM31.6162 16.974C31.6162 15.546 31.1822 14.454 30.3142 13.698C29.4462 12.914 28.3262 12.522 26.9542 12.522C25.4982 12.522 24.3922 12.928 23.6362 13.74C22.9082 14.552 22.4322 15.63 22.2082 16.974H31.6162Z" fill="white"/>
<path d="M54.2499 26.676C53.5499 27.572 52.5979 28.3 51.3939 28.86C50.2179 29.42 48.7059 29.7 46.8579 29.7C45.9899 29.7 45.1079 29.616 44.2119 29.448C43.3439 29.28 42.5599 28.986 41.8599 28.566C41.1599 28.146 40.5859 27.572 40.1379 26.844C39.7179 26.088 39.5079 25.122 39.5079 23.946C39.5079 22.518 39.8439 21.412 40.5159 20.628C41.1879 19.844 42.0279 19.256 43.0359 18.864C44.0719 18.444 45.1919 18.15 46.3959 17.982C47.5999 17.814 48.7199 17.66 49.7559 17.52C50.7919 17.352 51.6599 17.128 52.3599 16.848C53.0879 16.568 53.4799 16.092 53.5359 15.42C53.4239 13.348 52.1219 12.312 49.6299 12.312C48.4819 12.312 47.6139 12.48 47.0259 12.816C46.4379 13.124 46.0459 13.628 45.8499 14.328C45.6819 14.86 45.3039 15.238 44.7159 15.462C44.1559 15.658 43.6099 15.756 43.0779 15.756C41.3979 15.756 40.5579 15.21 40.5579 14.118C40.5579 13.978 40.5719 13.824 40.5999 13.656C40.7399 12.9 41.0199 12.2 41.4399 11.556C41.8599 10.912 42.4339 10.366 43.1619 9.91799C43.9179 9.44199 44.8279 9.07799 45.8919 8.82599C46.9559 8.54599 48.2159 8.40599 49.6719 8.40599C52.6399 8.40599 54.9219 8.96599 56.5179 10.086C58.1419 11.206 58.9539 12.984 58.9539 15.42V23.274C58.9539 23.918 59.0239 24.38 59.1639 24.66C59.3039 24.912 59.5419 25.038 59.8779 25.038H60.0039C60.3679 25.038 60.6479 25.22 60.8439 25.584C61.0399 25.948 61.1379 26.438 61.1379 27.054C61.1099 27.922 60.8859 28.538 60.4659 28.902C60.0459 29.238 59.3039 29.406 58.2399 29.406H58.0299C56.0699 29.406 54.8099 28.496 54.2499 26.676ZM45.3039 23.61C45.3039 24.366 45.5699 24.968 46.1019 25.416C46.6339 25.864 47.4459 26.088 48.5379 26.088C50.2179 26.088 51.4639 25.57 52.2759 24.534C53.1159 23.498 53.5359 22.182 53.5359 20.586V19.704C52.7799 20.124 51.9259 20.404 50.9739 20.544C50.0219 20.656 49.1259 20.796 48.2859 20.964C47.4459 21.132 46.7319 21.398 46.1439 21.762C45.5839 22.126 45.3039 22.742 45.3039 23.61Z" fill="white"/>
<path d="M95.9917 27.768C95.9917 29.056 95.0817 29.7 93.2617 29.7C91.4697 29.7 90.5737 29.056 90.5737 27.768V17.142C90.5737 15.602 90.2097 14.524 89.4817 13.908C88.7537 13.292 87.8857 12.984 86.8777 12.984C85.3097 12.984 84.1757 13.628 83.4757 14.916C82.8037 16.176 82.4677 17.912 82.4677 20.124V27.768C82.4677 29.056 81.5577 29.7 79.7377 29.7C77.9177 29.7 77.0077 29.056 77.0077 27.768V17.142C77.0077 15.602 76.6437 14.524 75.9157 13.908C75.2157 13.292 74.3477 12.984 73.3117 12.984C71.7717 12.984 70.6517 13.628 69.9517 14.916C69.2517 16.176 68.9017 17.912 68.9017 20.124V27.768C68.9017 29.056 67.9917 29.7 66.1717 29.7C64.3517 29.7 63.4417 29.056 63.4417 27.768V10.464C63.4417 9.76399 63.6377 9.24599 64.0297 8.90999C64.4497 8.57399 65.1077 8.40599 66.0037 8.40599C66.7317 8.40599 67.2917 8.57399 67.6837 8.90999C68.1037 9.21799 68.4257 9.70799 68.6497 10.38L68.7757 11.808C69.4197 10.744 70.2737 9.91799 71.3377 9.32999C72.4297 8.71399 73.7737 8.40599 75.3697 8.40599C76.9657 8.40599 78.3097 8.74199 79.4017 9.41399C80.5217 10.086 81.3337 11.164 81.8377 12.648C82.4817 11.304 83.3637 10.268 84.4837 9.53999C85.6317 8.78399 87.1157 8.40599 88.9357 8.40599C91.1477 8.40599 92.8837 9.06399 94.1437 10.38C95.4037 11.696 96.0197 13.838 95.9917 16.806V27.768Z" fill="white"/>
<path d="M99.7717 21.258C99.7717 19.494 100.22 18.052 101.116 16.932C102.04 15.812 103.188 14.958 104.56 14.37C103.496 13.81 102.614 13.026 101.914 12.018C101.242 11.01 100.906 9.72199 100.906 8.15399C100.906 6.80999 101.172 5.64799 101.704 4.66799C102.264 3.65999 103.006 2.83399 103.93 2.18999C104.882 1.54599 105.974 1.06999 107.206 0.76199C108.466 0.453989 109.81 0.299988 111.238 0.299988C112.638 0.299988 113.954 0.453989 115.186 0.76199C116.446 1.06999 117.538 1.54599 118.462 2.18999C119.386 2.83399 120.114 3.65999 120.646 4.66799C121.206 5.64799 121.486 6.80999 121.486 8.15399C121.486 9.72199 121.15 11.01 120.478 12.018C119.806 13.026 118.938 13.81 117.874 14.37C119.218 14.958 120.338 15.812 121.234 16.932C122.158 18.052 122.62 19.494 122.62 21.258C122.62 22.714 122.326 23.974 121.738 25.038C121.15 26.102 120.338 26.984 119.302 27.684C118.266 28.356 117.048 28.86 115.648 29.196C114.276 29.532 112.806 29.7 111.238 29.7C109.642 29.7 108.144 29.532 106.744 29.196C105.344 28.86 104.126 28.356 103.09 27.684C102.082 26.984 101.27 26.102 100.654 25.038C100.066 23.974 99.7717 22.714 99.7717 21.258ZM111.238 12.69C111.77 12.69 112.302 12.62 112.834 12.48C113.366 12.34 113.842 12.116 114.262 11.808C114.71 11.5 115.06 11.108 115.312 10.632C115.592 10.128 115.732 9.52599 115.732 8.82599C115.732 7.56599 115.312 6.61399 114.472 5.96999C113.66 5.32599 112.582 5.00399 111.238 5.00399C109.838 5.00399 108.732 5.32599 107.92 5.96999C107.108 6.61399 106.702 7.56599 106.702 8.82599C106.702 9.52599 106.828 10.128 107.08 10.632C107.36 11.108 107.71 11.5 108.13 11.808C108.578 12.116 109.068 12.34 109.6 12.48C110.16 12.62 110.706 12.69 111.238 12.69ZM111.238 24.954C112.946 24.954 114.304 24.632 115.312 23.988C116.348 23.316 116.866 22.252 116.866 20.796C116.866 20.012 116.684 19.354 116.32 18.822C115.984 18.29 115.536 17.87 114.976 17.562C114.444 17.254 113.842 17.03 113.17 16.89C112.526 16.75 111.882 16.68 111.238 16.68C110.594 16.68 109.936 16.75 109.264 16.89C108.592 17.03 107.976 17.254 107.416 17.562C106.884 17.87 106.436 18.29 106.072 18.822C105.736 19.354 105.568 20.012 105.568 20.796C105.568 22.252 106.072 23.316 107.08 23.988C108.088 24.632 109.474 24.954 111.238 24.954Z" fill="#5BD424"/>
<path d="M130.853 23.946C131.161 24.618 131.609 25.122 132.197 25.458C132.813 25.766 133.695 25.92 134.843 25.92C136.215 25.92 137.209 25.724 137.825 25.332C138.441 24.94 138.749 24.366 138.749 23.61C138.749 22.994 138.427 22.532 137.783 22.224C137.139 21.916 136.327 21.664 135.347 21.468C134.395 21.272 133.359 21.062 132.239 20.838C131.119 20.614 130.069 20.278 129.089 19.83C128.137 19.354 127.339 18.71 126.695 17.898C126.051 17.086 125.729 15.98 125.729 14.58C125.729 13.572 125.953 12.69 126.401 11.934C126.849 11.15 127.465 10.506 128.249 10.002C129.061 9.46999 130.027 9.07799 131.147 8.82599C132.267 8.54599 133.499 8.40599 134.843 8.40599C139.519 8.40599 142.389 9.90399 143.453 12.9C143.677 13.544 143.565 14.076 143.117 14.496C142.697 14.916 142.067 15.126 141.227 15.126C140.583 15.126 139.995 15 139.463 14.748C138.931 14.496 138.511 14.132 138.203 13.656C137.727 12.676 136.621 12.186 134.885 12.186C133.681 12.186 132.785 12.382 132.197 12.774C131.609 13.166 131.315 13.698 131.315 14.37C131.315 15.07 131.637 15.602 132.281 15.966C132.925 16.33 133.723 16.638 134.675 16.89C135.627 17.114 136.663 17.352 137.783 17.604C138.931 17.828 139.981 18.164 140.933 18.612C141.885 19.032 142.683 19.634 143.327 20.418C143.971 21.174 144.293 22.21 144.293 23.526C144.293 25.738 143.453 27.32 141.773 28.272C140.121 29.224 137.839 29.7 134.927 29.7C133.471 29.7 132.197 29.588 131.105 29.364C130.041 29.14 129.131 28.832 128.375 28.44C127.619 28.02 127.017 27.53 126.569 26.97C126.121 26.382 125.785 25.738 125.561 25.038C125.337 24.394 125.449 23.862 125.897 23.442C126.373 22.994 127.101 22.77 128.081 22.77C128.641 22.77 129.187 22.868 129.719 23.064C130.251 23.232 130.629 23.526 130.853 23.946Z" fill="white"/>
</svg>
